<svg width="1080" height="1080" viewBox="0 0 1080 1080" fill="none" xmlns="http://www.w3.org/2000/svg">
<circle cx="540" cy="540" r="540" fill="black"/>
<path d="M865.926 574.699V506.265C907.593 501.446 940 464.819 940 420.482C940 372.289 902.963 333.735 856.667 333.735C828.889 333.735 804.815 348.193 789.074 369.398L609.444 261.446C614.074 250.843 615.926 239.277 615.926 226.747C615.926 178.554 578.889 140 532.593 140C486.296 140 449.259 178.554 449.259 226.747C449.259 230.602 449.259 233.494 450.185 237.349L301.111 274.94L140 232.53L185.37 419.518L305.741 294.217L453.889 257.59C465.926 291.325 496.481 314.458 532.593 314.458C560.37 314.458 584.444 300 600.185 278.795L780.741 385.783C776.111 395.422 773.333 406.988 773.333 419.518C773.333 463.855 805.741 500.482 847.407 505.301V573.735C805.741 578.554 773.333 615.181 773.333 659.518C773.333 673.976 777.037 687.47 782.593 699.036L642.778 797.349C627.037 778.072 604.815 766.506 578.889 766.506C549.259 766.506 524.259 781.928 509.444 806.024L379.815 738.554C383.519 728.916 385.37 719.277 385.37 708.675C385.37 660.482 348.333 621.928 302.037 621.928C255.741 621.928 218.704 660.482 218.704 708.675C218.704 756.867 255.741 795.422 302.037 795.422C331.667 795.422 356.667 780 371.481 755.904L501.111 823.374C497.407 833.012 495.556 842.651 495.556 853.253C495.556 901.446 532.593 940 578.889 940C625.185 940 662.222 901.446 662.222 853.253C662.222 838.795 658.519 825.301 652.963 813.735L792.778 716.386C808.519 735.663 830.741 747.229 856.667 747.229C902.963 747.229 940 708.675 940 660.482C940 616.145 907.593 579.518 865.926 574.699ZM194.63 380.964L165 258.554L282.593 289.398L194.63 380.964ZM592.778 251.807C590.926 257.59 587.222 263.373 583.519 268.193C571.481 283.614 552.963 294.217 532.593 294.217C505.741 294.217 481.667 276.867 472.407 251.807C470.556 246.024 468.704 239.277 467.778 233.494C467.778 231.566 467.778 229.639 467.778 227.711C467.778 190.12 496.481 160.241 532.593 160.241C568.704 160.241 597.407 190.12 597.407 227.711C597.407 235.422 595.556 244.096 592.778 251.807ZM362.222 729.88C360.37 735.663 357.593 741.446 353.889 747.229C341.852 764.578 322.407 776.145 301.111 776.145C265 776.145 236.296 746.265 236.296 708.675C236.296 671.084 265 641.205 301.111 641.205C337.222 641.205 365.926 671.084 365.926 708.675C365.926 716.386 365 723.133 362.222 729.88ZM578.889 920.723C542.778 920.723 514.074 890.843 514.074 853.253C514.074 845.542 515 838.795 517.778 832.048C519.63 826.265 522.407 820.482 526.111 814.699C538.148 797.349 557.593 785.783 578.889 785.783C598.333 785.783 615 794.458 627.037 807.952C630.741 812.771 634.444 818.554 637.222 824.337C640.926 833.012 643.704 842.651 643.704 853.253C643.704 890.843 615 920.723 578.889 920.723ZM791.852 419.518C791.852 410.843 793.704 402.169 796.481 394.458C798.333 388.675 802.037 382.892 805.741 378.072C817.778 362.651 836.296 352.048 856.667 352.048C892.778 352.048 921.481 381.928 921.481 419.518C921.481 453.253 897.407 481.205 865.926 486.024C863.148 486.024 859.444 486.988 856.667 486.988C853.889 486.988 850.185 486.988 847.407 486.024C815.926 481.205 791.852 453.253 791.852 419.518ZM856.667 727.952C837.222 727.952 820.556 719.277 808.519 705.783C804.815 700.964 801.111 695.181 798.333 689.398C794.63 680.723 791.852 671.084 791.852 660.482C791.852 626.747 815.926 598.795 847.407 593.976C850.185 593.976 853.889 593.012 856.667 593.012C859.444 593.012 863.148 593.012 865.926 593.976C897.407 598.795 921.481 626.747 921.481 660.482C921.481 698.072 892.778 727.952 856.667 727.952Z" fill="white"/>
<path d="M301.111 660.482C275.185 660.482 254.815 681.687 254.815 708.675C254.815 735.663 275.185 756.867 301.111 756.867C327.037 756.867 347.407 735.663 347.407 708.675C347.407 681.687 327.037 660.482 301.111 660.482ZM301.111 737.59C285.37 737.59 273.333 725.06 273.333 708.675C273.333 692.289 285.37 679.759 301.111 679.759C316.852 679.759 328.889 692.289 328.889 708.675C328.889 725.06 316.852 737.59 301.111 737.59Z" fill="white"/>
</svg>
