<svg width="700" height="179" viewBox="0 0 700 179" fill="none" xmlns="http://www.w3.org/2000/svg">
<g clip-path="url(#clip0_1_148)">
<g clip-path="url(#clip1_1_148)">
<g clip-path="url(#clip2_1_148)">
<path d="M229.097 18.5221C229.097 14.6616 226.482 11.532 223.256 11.532C220.031 11.532 217.416 14.6616 217.416 18.5221V159.978C217.416 163.838 220.031 166.968 223.256 166.968C226.482 166.968 229.097 163.838 229.097 159.978V18.5221Z" fill="black"/>
<g clip-path="url(#clip3_1_148)">
<g clip-path="url(#clip4_1_148)">
<g clip-path="url(#clip5_1_148)">
<g clip-path="url(#clip6_1_148)">
<path d="M259.717 91.5378C259.717 85.3681 260.451 79.4392 261.919 73.7511C263.41 68.063 265.531 62.7649 268.284 57.8566C271.013 52.9254 274.327 48.4415 278.226 44.4048C282.125 40.368 286.483 36.9047 291.3 34.0148C296.116 31.1479 301.334 28.9231 306.953 27.3405C312.573 25.7809 318.49 25.0011 324.706 25.0011C329.637 25.0011 333.96 25.3222 337.676 25.9644C341.414 26.6066 344.671 27.4208 347.447 28.407C350.222 29.3933 352.538 30.4713 354.396 31.641C356.277 32.8107 357.836 33.9346 359.075 35.0125C359.006 35.0125 358.972 35.2075 358.972 35.5974C358.972 36.4231 359.041 37.9598 359.178 40.2075C359.339 42.4552 359.511 44.9437 359.694 47.6731C359.901 50.4254 360.073 53.2121 360.21 56.0332C360.348 58.8543 360.417 61.3084 360.417 63.3956C360.417 63.7167 360.302 64.0951 360.073 64.5309C359.843 64.9438 359.281 65.1502 358.387 65.1502C357.882 65.1502 357.275 65.0699 356.564 64.9094C355.371 64.5653 353.88 63.797 352.091 62.6043C350.302 61.3887 348.215 60.1272 345.83 58.8199C343.467 57.4896 340.807 56.3084 337.848 55.2763C334.912 54.2442 331.713 53.7282 328.249 53.7282C323.662 53.7282 319.488 54.6341 315.726 56.446C311.965 58.2809 308.777 60.7924 306.162 63.9805C303.524 67.1685 301.472 70.9644 300.004 75.3681C298.559 79.7488 297.836 84.5424 297.836 89.7488C297.836 94.3589 298.341 98.7397 299.35 102.891C300.359 107.065 301.885 110.724 303.926 113.866C305.967 117.008 308.513 119.52 311.563 121.4C314.614 123.258 318.158 124.187 322.194 124.187C325.382 124.187 328.215 124.084 330.692 123.877C333.146 123.648 335.44 123.281 337.573 122.776C339.706 122.272 341.793 121.595 343.834 120.747C345.875 119.921 348.066 118.854 350.405 117.547C350.52 117.501 350.807 117.478 351.265 117.478C351.655 117.478 351.919 117.627 352.057 117.925C352.194 118.247 352.263 118.877 352.263 119.818V129.898C352.263 131.756 352.252 133.568 352.229 135.334C352.206 137.1 352.171 138.682 352.125 140.081C352.103 141.481 352.08 142.616 352.057 143.487C352.034 144.336 351.988 144.76 351.919 144.76C349.35 146.389 346.598 147.719 343.662 148.751C340.726 149.806 337.699 150.62 334.58 151.194C331.483 151.79 328.364 152.18 325.222 152.364C322.08 152.57 319.052 152.673 316.139 152.673C308.249 152.673 300.864 151.171 293.983 148.166C287.08 145.185 281.093 140.999 276.024 135.609C270.979 130.242 266.999 123.809 264.086 116.309C261.174 108.808 259.717 100.552 259.717 91.5378ZM367.194 91.5378C367.194 85.3681 367.94 79.4392 369.431 73.7511C370.921 68.063 373.031 62.7649 375.761 57.8566C378.513 52.9254 381.839 48.4415 385.738 44.4048C389.614 40.368 393.96 36.9047 398.777 34.0148C403.593 31.1479 408.823 28.9231 414.465 27.3405C420.084 25.7809 426.002 25.0011 432.217 25.0011C437.149 25.0011 441.472 25.3222 445.188 25.9644C448.926 26.6066 452.171 27.4208 454.924 28.407C457.699 29.3933 460.027 30.4713 461.908 31.641C463.788 32.8107 465.348 33.9346 466.587 35.0125C466.518 35.0125 466.483 35.2075 466.483 35.5974C466.483 36.4231 466.552 37.9598 466.69 40.2075C466.827 42.4552 466.999 44.9437 467.206 47.6731C467.389 50.4254 467.561 53.2121 467.722 56.0332C467.86 58.8543 467.928 61.3084 467.928 63.3956C467.928 63.7167 467.814 64.0951 467.584 64.5309C467.355 64.9438 466.793 65.1502 465.899 65.1502C465.394 65.1502 464.775 65.0699 464.041 64.9094C462.871 64.5653 461.392 63.797 459.603 62.6043C457.814 61.3887 455.727 60.1272 453.341 58.8199C450.956 57.4896 448.295 56.3084 445.36 55.2763C442.424 54.2442 439.224 53.7282 435.761 53.7282C431.151 53.7282 426.976 54.6341 423.238 56.446C419.476 58.2809 416.277 60.7924 413.639 63.9805C411.025 67.1685 408.983 70.9644 407.515 75.3681C406.07 79.7488 405.348 84.5424 405.348 89.7488C405.348 94.3589 405.853 98.7397 406.862 102.891C407.871 107.065 409.396 110.724 411.437 113.866C413.479 117.008 416.025 119.52 419.075 121.4C422.126 123.258 425.669 124.187 429.706 124.187C432.894 124.187 435.715 124.084 438.169 123.877C440.646 123.648 442.951 123.281 445.084 122.776C447.194 122.272 449.27 121.595 451.311 120.747C453.376 119.921 455.577 118.854 457.917 117.547C458.032 117.501 458.318 117.478 458.777 117.478C459.167 117.478 459.431 117.627 459.568 117.925C459.706 118.247 459.775 118.877 459.775 119.818V129.898C459.775 131.756 459.763 133.568 459.74 135.334C459.694 137.1 459.66 138.682 459.637 140.081C459.614 141.481 459.591 142.616 459.568 143.487C459.522 144.336 459.477 144.76 459.431 144.76C456.862 146.389 454.11 147.719 451.174 148.751C448.215 149.806 445.188 150.62 442.091 151.194C438.972 151.79 435.853 152.18 432.733 152.364C429.591 152.57 426.564 152.673 423.651 152.673C415.761 152.673 408.364 151.171 401.46 148.166C394.58 145.185 388.605 140.999 383.536 135.609C378.467 130.242 374.476 123.809 371.564 116.309C368.651 108.808 367.194 100.552 367.194 91.5378ZM559.786 31.7098L586.002 24.657C586.277 24.6112 586.541 24.5767 586.793 24.5538C587.045 24.5079 587.286 24.485 587.516 24.485C588.525 24.485 589.339 24.8061 589.958 25.4483C590.578 26.1135 590.99 27.2488 591.197 28.8543C591.312 29.8634 591.495 31.2855 591.747 33.1203C592 34.9323 592.286 36.9392 592.607 39.141C592.906 41.3658 593.238 43.6479 593.605 45.9873C593.972 48.3497 594.293 50.5286 594.568 52.524C594.844 54.4965 595.096 56.2052 595.325 57.6502C595.555 59.0722 595.692 59.9782 595.738 60.3681C596.977 70.2763 598.066 78.2236 599.006 84.2098C599.97 90.1961 600.646 94.6227 601.036 97.4897L606.679 142.937L605.818 145.517C605.704 145.93 604.981 146.412 603.651 146.962C602.298 147.513 600.669 148.109 598.766 148.751C596.862 149.416 594.786 150.047 592.539 150.643C590.314 151.263 588.25 151.825 586.346 152.329C584.442 152.834 582.825 153.247 581.495 153.568C580.188 153.866 579.511 154.015 579.465 154.015C578.112 154.015 577.045 153.04 576.266 151.091C575.486 149.118 574.844 146.618 574.339 143.591C573.834 140.563 573.422 137.26 573.1 133.682C572.802 130.104 572.458 126.664 572.068 123.361C571.724 120.609 571.415 117.834 571.139 115.036C570.864 112.237 570.555 109.382 570.211 106.469L566.942 81.9392L535.772 138.981C534.832 140.334 533.88 141.297 532.917 141.87C531.977 142.467 531.082 142.765 530.233 142.765C528.995 142.765 528.032 142.398 527.344 141.664C526.633 140.93 526.139 140.036 525.864 138.981C524.809 135.448 523.903 132.467 523.146 130.036C522.389 127.604 521.69 125.38 521.048 123.361C520.383 121.343 519.775 119.382 519.224 117.478C518.674 115.575 518.043 113.373 517.332 110.873C516.644 108.396 515.864 105.46 514.993 102.065C514.121 98.6709 513.066 94.508 511.827 89.5768L509.247 101.687L497.137 153.017C496.977 153.682 496.277 154.015 495.038 154.015C493.869 154.015 492.263 153.786 490.222 153.327C488.158 152.891 486.025 152.352 483.823 151.71C481.621 151.068 479.465 150.391 477.355 149.68C475.245 148.992 473.582 148.361 472.366 147.788C472.091 147.673 471.736 147.409 471.3 146.997C470.887 146.584 470.681 145.93 470.681 145.036C470.681 144.806 470.761 144.325 470.921 143.591C471.105 142.88 471.323 142.031 471.575 141.045C471.827 140.059 472.103 139.061 472.401 138.052C472.699 137.042 472.997 136.148 473.295 135.368C474.006 133.464 474.66 131.228 475.256 128.659C475.853 126.068 476.403 123.464 476.908 120.85C477.412 118.212 477.871 115.689 478.284 113.281C478.697 110.873 479.098 108.854 479.488 107.226L489.844 59.0263L492.94 45.4025C493.33 43.6823 493.708 41.9965 494.075 40.3451C494.442 38.6937 494.763 37.1914 495.038 35.8382C495.314 34.485 495.532 33.3956 495.692 32.5699C495.876 31.7213 495.967 31.2396 495.967 31.1249L516.954 24.657C517.733 24.657 518.422 24.7258 519.018 24.8634C519.614 25.0011 519.993 25.4712 520.153 26.274L536.873 80.0126L559.786 31.7098ZM623.468 147.031L622.023 117.065C622.023 116.997 622.011 116.939 621.988 116.893C621.965 116.825 621.954 116.767 621.954 116.721C621.954 115.781 622.458 115.311 623.468 115.311C623.972 115.311 624.523 115.552 625.119 116.033C628.146 118.9 631.507 121.171 635.199 122.845C638.915 124.52 642.951 125.357 647.309 125.357C648.479 125.357 649.821 125.242 651.335 125.013C652.848 124.76 654.282 124.336 655.635 123.74C656.965 123.143 658.101 122.375 659.041 121.435C659.958 120.471 660.417 119.267 660.417 117.822C660.417 116.194 660.027 114.737 659.247 113.453C658.445 112.169 657.401 111.079 656.117 110.185C655.612 109.841 654.855 109.279 653.846 108.499C652.837 107.719 651.69 106.825 650.406 105.815C649.121 104.806 647.779 103.728 646.38 102.581C644.981 101.435 643.651 100.334 642.39 99.2787C641.128 98.2466 639.993 97.3177 638.984 96.492C637.974 95.6433 637.218 94.9897 636.713 94.531C633.41 92.0768 630.796 89.5883 628.869 87.0654C626.942 84.5424 625.474 81.9163 624.465 79.1869C623.456 76.4346 622.814 73.5906 622.539 70.6548C622.263 67.719 622.126 64.5997 622.126 61.297C622.126 56.3658 623.296 51.6869 625.635 47.2603C627.997 42.8336 631.312 38.9804 635.578 35.7006C639.867 32.4208 645.004 29.8176 650.99 27.891C657 25.9644 663.663 25.0011 670.979 25.0011C671.874 25.0011 673.227 25.1043 675.039 25.3107C676.828 25.4942 678.8 25.8153 680.956 26.274C683.112 26.7098 685.302 27.3176 687.527 28.0974C689.775 28.9002 691.828 29.9093 693.686 31.1249C694.282 31.5836 694.763 32.0309 695.13 32.4667C695.497 32.9254 695.738 33.6249 695.853 34.5653C696.128 39.1066 696.358 43.5791 696.541 47.9827C696.702 52.3635 696.919 57.0194 697.195 61.9506C697.195 62.9139 697 63.5447 696.61 63.8429C696.22 64.164 695.715 64.3245 695.096 64.3245C694.477 64.3245 694.007 64.1525 693.686 63.8084C692.057 62.18 690.371 60.586 688.628 59.0263C686.885 57.4438 685.062 56.0561 683.158 54.8635C681.254 53.6479 679.224 52.6846 677.069 51.9736C674.913 51.2396 672.585 50.8727 670.085 50.8727C668.571 50.8727 667.057 50.9988 665.543 51.2511C664.03 51.5034 662.653 51.9621 661.415 52.6272C660.176 53.3153 659.179 54.2442 658.422 55.4139C657.665 56.5837 657.286 58.063 657.286 59.852C657.286 61.7557 657.527 63.4071 658.009 64.8062C658.49 66.2052 659.683 67.524 661.587 68.7626L681.747 82.4553C685.44 85.0929 688.433 87.7076 690.727 90.2993C693.02 92.914 694.809 95.5057 696.094 98.0745C697.401 100.643 698.284 103.178 698.743 105.678C699.225 108.178 699.465 110.632 699.465 113.04C699.465 116.962 698.823 120.655 697.539 124.118C696.254 127.581 694.488 130.781 692.241 133.717C689.993 136.675 687.378 139.313 684.396 141.63C681.392 143.946 678.181 145.93 674.763 147.581C671.346 149.233 667.802 150.494 664.133 151.366C660.486 152.237 656.896 152.673 653.364 152.673C650.612 152.673 647.906 152.627 645.245 152.536C642.585 152.467 639.993 152.249 637.47 151.882C634.947 151.515 632.516 150.953 630.176 150.196C627.814 149.439 625.578 148.384 623.468 147.031Z" fill="black"/>
</g>
</g>
</g>
</g>
<g clip-path="url(#clip7_1_148)">
<g clip-path="url(#clip8_1_148)">
<path d="M169.583 97.0143V81.7014C179.288 80.623 186.837 72.4273 186.837 62.5063C186.837 51.7225 178.21 43.0955 167.426 43.0955C160.956 43.0955 155.348 46.3306 151.682 51.0755L109.841 26.9199C110.919 24.5474 111.351 21.9593 111.351 19.1556C111.351 8.37179 102.724 -0.255219 91.9398 -0.255219C81.156 -0.255219 72.529 8.37179 72.529 19.1556C72.529 20.0183 72.529 20.6653 72.7447 21.528L38.021 29.9393L0.493469 20.4496L11.0616 62.2906L39.0993 34.2528L73.6074 26.0572C76.4111 33.6058 83.5284 38.782 91.9398 38.782C98.41 38.782 104.018 35.5469 107.684 30.802L149.741 54.742C148.662 56.8987 148.015 59.4868 148.015 62.2906C148.015 72.2117 155.564 80.4073 165.269 81.4857V96.7986C155.564 97.877 148.015 106.073 148.015 115.994C148.015 119.229 148.878 122.248 150.172 124.836L117.605 146.835C113.939 142.522 108.762 139.934 102.724 139.934C95.8219 139.934 89.9987 143.384 86.5479 148.776L56.3533 133.679C57.216 131.522 57.6474 129.366 57.6474 126.993C57.6474 116.209 49.0204 107.582 38.2366 107.582C27.4529 107.582 18.8259 116.209 18.8259 126.993C18.8259 137.777 27.4529 146.404 38.2366 146.404C45.1382 146.404 50.9615 142.953 54.4123 137.561L84.6068 152.659C83.7441 154.815 83.3128 156.972 83.3128 159.344C83.3128 170.128 91.9398 178.755 102.724 178.755C113.507 178.755 122.134 170.128 122.134 159.344C122.134 156.109 121.272 153.09 119.978 150.502L152.544 128.719C156.211 133.032 161.387 135.62 167.426 135.62C178.21 135.62 186.837 126.993 186.837 116.209C186.837 106.288 179.288 98.0927 169.583 97.0143ZM13.2183 53.6636L6.3167 26.2728L33.7075 33.1744L13.2183 53.6636ZM105.959 24.7631C105.527 26.0572 104.665 27.3512 103.802 28.4296C100.998 31.8804 96.6846 34.2528 91.9398 34.2528C85.6852 34.2528 80.0776 30.3707 77.9209 24.7631C77.4895 23.4691 77.0582 21.9593 76.8425 20.6653C76.8425 20.2339 76.8425 19.8026 76.8425 19.3712C76.8425 10.9599 83.5284 4.27396 91.9398 4.27396C100.351 4.27396 107.037 10.9599 107.037 19.3712C107.037 21.0966 106.606 23.0377 105.959 24.7631ZM52.2555 131.738C51.8242 133.032 51.1771 134.326 50.3144 135.62C47.5107 139.502 42.9815 142.09 38.021 142.09C29.6096 142.09 22.9237 135.404 22.9237 126.993C22.9237 118.582 29.6096 111.896 38.021 111.896C46.4323 111.896 53.1182 118.582 53.1182 126.993C53.1182 128.719 52.9025 130.228 52.2555 131.738ZM102.724 174.442C94.3122 174.442 87.6263 167.756 87.6263 159.344C87.6263 157.619 87.8419 156.109 88.489 154.6C88.9203 153.306 89.5673 152.011 90.43 150.717C93.2338 146.835 97.763 144.247 102.724 144.247C107.253 144.247 111.135 146.188 113.939 149.208C114.801 150.286 115.664 151.58 116.311 152.874C117.174 154.815 117.821 156.972 117.821 159.344C117.821 167.756 111.135 174.442 102.724 174.442ZM152.329 62.2906C152.329 60.3495 152.76 58.4084 153.407 56.683C153.839 55.389 154.701 54.0949 155.564 53.0166C158.368 49.5658 162.681 47.1933 167.426 47.1933C175.837 47.1933 182.523 53.8793 182.523 62.2906C182.523 69.8392 176.916 76.0938 169.583 77.1722C168.936 77.1722 168.073 77.3879 167.426 77.3879C166.779 77.3879 165.916 77.3879 165.269 77.1722C157.936 76.0938 152.329 69.8392 152.329 62.2906ZM167.426 131.307C162.897 131.307 159.015 129.366 156.211 126.346C155.348 125.268 154.486 123.974 153.839 122.68C152.976 120.739 152.329 118.582 152.329 116.209C152.329 108.661 157.936 102.406 165.269 101.328C165.916 101.328 166.779 101.112 167.426 101.112C168.073 101.112 168.936 101.112 169.583 101.328C176.916 102.406 182.523 108.661 182.523 116.209C182.523 124.621 175.837 131.307 167.426 131.307Z" fill="black"/>
<path d="M38.0209 116.209C31.982 116.209 27.2372 120.954 27.2372 126.993C27.2372 133.032 31.982 137.777 38.0209 137.777C44.0598 137.777 48.8047 133.032 48.8047 126.993C48.8047 120.954 44.0598 116.209 38.0209 116.209ZM38.0209 133.463C34.3545 133.463 31.5507 130.66 31.5507 126.993C31.5507 123.327 34.3545 120.523 38.0209 120.523C41.6874 120.523 44.4912 123.327 44.4912 126.993C44.4912 130.66 41.6874 133.463 38.0209 133.463Z" fill="black"/>
</g>
</g>
</g>
</g>
</g>
<defs>
<clipPath id="clip0_1_148">
<rect width="700" height="178.5" fill="white"/>
</clipPath>
<clipPath id="clip1_1_148">
<rect width="699.013" height="179.01" fill="white" transform="translate(0.493469 -0.255219)"/>
</clipPath>
<clipPath id="clip2_1_148">
<rect width="699.013" height="179.01" fill="white" transform="translate(0.493469 -0.255219)"/>
</clipPath>
<clipPath id="clip3_1_148">
<rect width="439.831" height="129.53" fill="white" transform="translate(259.676 24.485)"/>
</clipPath>
<clipPath id="clip4_1_148">
<rect width="439.831" height="129.53" fill="white" transform="translate(259.676 24.485)"/>
</clipPath>
<clipPath id="clip5_1_148">
<rect width="439.831" height="129.53" fill="white" transform="translate(259.676 24.485)"/>
</clipPath>
<clipPath id="clip6_1_148">
<rect width="439.831" height="129.53" fill="white" transform="translate(259.676 24.485)"/>
</clipPath>
<clipPath id="clip7_1_148">
<rect width="186.343" height="179.01" fill="white" transform="translate(0.493469 -0.255219)"/>
</clipPath>
<clipPath id="clip8_1_148">
<rect width="186.343" height="179.01" fill="white" transform="translate(0.493469 -0.255219)"/>
</clipPath>
</defs>
</svg>
