<svg width="700" height="179" viewBox="0 0 700 179" fill="none" xmlns="http://www.w3.org/2000/svg">
<g clip-path="url(#clip0_1_180)">
<path d="M228.926 18.7238C228.926 14.8743 226.308 11.7536 223.077 11.7536C219.847 11.7536 217.229 14.8743 217.229 18.7238V159.776C217.229 163.626 219.847 166.746 223.077 166.746C226.308 166.746 228.926 163.626 228.926 159.776V18.7238Z" fill="white"/>
<g clip-path="url(#clip1_1_180)">
<g clip-path="url(#clip2_1_180)">
<g clip-path="url(#clip3_1_180)">
<g clip-path="url(#clip4_1_180)">
<path d="M259.59 91.5313C259.59 85.3792 260.325 79.4672 261.795 73.7953C263.288 68.1235 265.412 62.8404 268.168 57.9461C270.901 53.029 274.22 48.5578 278.125 44.5326C282.03 40.5074 286.394 37.054 291.217 34.1723C296.04 31.3135 301.265 29.0951 306.893 27.517C312.52 25.9619 318.446 25.1843 324.67 25.1843C329.608 25.1843 333.938 25.5044 337.659 26.1448C341.402 26.7852 344.664 27.5971 347.443 28.5805C350.222 29.564 352.542 30.6389 354.402 31.8053C356.286 32.9716 357.848 34.0923 359.088 35.1672C359.019 35.1672 358.984 35.3616 358.984 35.7504C358.984 36.5737 359.053 38.106 359.191 40.3473C359.352 42.5886 359.524 45.0701 359.708 47.7917C359.915 50.5361 360.087 53.3149 360.225 56.1279C360.363 58.941 360.431 61.3881 360.431 63.4693C360.431 63.7895 360.317 64.1669 360.087 64.6014C359.857 65.0131 359.295 65.2189 358.399 65.2189C357.894 65.2189 357.285 65.1389 356.573 64.9788C355.378 64.6357 353.886 63.8696 352.094 62.6803C350.303 61.4682 348.212 60.2103 345.824 58.9067C343.458 57.5802 340.794 56.4024 337.831 55.3732C334.891 54.344 331.687 53.8295 328.219 53.8295C323.625 53.8295 319.445 54.7328 315.678 56.5396C311.911 58.3692 308.719 60.8735 306.1 64.0525C303.459 67.2315 301.403 71.0166 299.933 75.4077C298.486 79.7759 297.763 84.5558 297.763 89.7474C297.763 94.3444 298.268 98.7126 299.279 102.852C300.289 107.015 301.817 110.662 303.861 113.796C305.905 116.929 308.454 119.433 311.509 121.309C314.564 123.161 318.113 124.087 322.155 124.087C325.348 124.087 328.184 123.984 330.665 123.779C333.122 123.55 335.419 123.184 337.555 122.681C339.691 122.178 341.781 121.503 343.825 120.657C345.87 119.833 348.063 118.77 350.406 117.466C350.521 117.421 350.808 117.398 351.267 117.398C351.658 117.398 351.922 117.546 352.06 117.844C352.197 118.164 352.266 118.793 352.266 119.731V129.782C352.266 131.635 352.255 133.441 352.232 135.202C352.209 136.963 352.174 138.541 352.128 139.937C352.106 141.332 352.083 142.464 352.06 143.333C352.037 144.179 351.991 144.602 351.922 144.602C349.349 146.226 346.593 147.552 343.653 148.582C340.713 149.634 337.681 150.445 334.558 151.017C331.457 151.612 328.333 152.001 325.187 152.184C322.04 152.389 319.008 152.492 316.091 152.492C308.19 152.492 300.795 150.994 293.904 147.998C286.991 145.025 280.996 140.851 275.92 135.477C270.867 130.125 266.882 123.71 263.965 116.231C261.048 108.753 259.59 100.519 259.59 91.5313ZM367.219 91.5313C367.219 85.3792 367.965 79.4672 369.458 73.7953C370.951 68.1235 373.064 62.8404 375.797 57.9461C378.553 53.029 381.884 48.5578 385.788 44.5326C389.67 40.5074 394.022 37.054 398.846 34.1723C403.669 31.3135 408.906 29.0951 414.556 27.517C420.183 25.9619 426.109 25.1843 432.333 25.1843C437.272 25.1843 441.601 25.5044 445.322 26.1448C449.066 26.7852 452.316 27.5971 455.072 28.5805C457.851 29.564 460.182 30.6389 462.066 31.8053C463.949 32.9716 465.511 34.0923 466.751 35.1672C466.682 35.1672 466.648 35.3616 466.648 35.7504C466.648 36.5737 466.717 38.106 466.855 40.3473C466.992 42.5886 467.165 45.0701 467.371 47.7917C467.555 50.5361 467.727 53.3149 467.888 56.1279C468.026 58.941 468.095 61.3881 468.095 63.4693C468.095 63.7895 467.98 64.1669 467.75 64.6014C467.521 65.0131 466.958 65.2189 466.062 65.2189C465.557 65.2189 464.937 65.1389 464.202 64.9788C463.03 64.6357 461.549 63.8696 459.757 62.6803C457.966 61.4682 455.876 60.2103 453.487 58.9067C451.098 57.5802 448.434 56.4024 445.494 55.3732C442.554 54.344 439.35 53.8295 435.882 53.8295C431.265 53.8295 427.085 54.7328 423.341 56.5396C419.575 58.3692 416.371 60.8735 413.729 64.0525C411.111 67.2315 409.067 71.0166 407.597 75.4077C406.15 79.7759 405.426 84.5558 405.426 89.7474C405.426 94.3444 405.931 98.7126 406.942 102.852C407.953 107.015 409.48 110.662 411.524 113.796C413.568 116.929 416.118 119.433 419.173 121.309C422.227 123.161 425.776 124.087 429.818 124.087C433.011 124.087 435.836 123.984 438.294 123.779C440.774 123.55 443.083 123.184 445.219 122.681C447.332 122.178 449.41 121.503 451.454 120.657C453.522 119.833 455.727 118.77 458.069 117.466C458.184 117.421 458.471 117.398 458.931 117.398C459.321 117.398 459.585 117.546 459.723 117.844C459.861 118.164 459.93 118.793 459.93 119.731V129.782C459.93 131.635 459.918 133.441 459.895 135.202C459.849 136.963 459.815 138.541 459.792 139.937C459.769 141.332 459.746 142.464 459.723 143.333C459.677 144.179 459.631 144.602 459.585 144.602C457.013 146.226 454.257 147.552 451.317 148.582C448.354 149.634 445.322 150.445 442.221 151.017C439.098 151.612 435.974 152.001 432.85 152.184C429.704 152.389 426.672 152.492 423.755 152.492C415.854 152.492 408.446 150.994 401.533 147.998C394.643 145.025 388.659 140.851 383.583 135.477C378.507 130.125 374.511 123.71 371.594 116.231C368.677 108.753 367.219 100.519 367.219 91.5313ZM560.083 31.8739L586.335 24.8412C586.611 24.7955 586.875 24.7612 587.128 24.7383C587.38 24.6925 587.621 24.6697 587.851 24.6697C588.862 24.6697 589.677 24.9899 590.297 25.6302C590.917 26.2935 591.331 27.4256 591.537 29.0265C591.652 30.0328 591.836 31.4508 592.089 33.2804C592.341 35.0872 592.628 37.0883 592.95 39.2839C593.249 41.5023 593.582 43.7779 593.949 46.1107C594.317 48.4663 594.638 50.639 594.914 52.6288C595.189 54.5956 595.442 56.2995 595.672 57.7403C595.901 59.1583 596.039 60.0616 596.085 60.4504C597.325 70.3305 598.416 78.2551 599.358 84.2242C600.323 90.1934 601 94.6074 601.391 97.4662L607.041 142.784L606.18 145.357C606.065 145.768 605.341 146.249 604.009 146.798C602.654 147.347 601.023 147.941 599.117 148.582C597.211 149.245 595.132 149.874 592.881 150.468C590.653 151.086 588.586 151.646 586.68 152.149C584.773 152.652 583.154 153.064 581.822 153.384C580.513 153.682 579.835 153.83 579.789 153.83C578.434 153.83 577.366 152.858 576.585 150.914C575.804 148.947 575.161 146.455 574.656 143.436C574.151 140.417 573.737 137.123 573.416 133.556C573.117 129.988 572.772 126.557 572.382 123.264C572.037 120.52 571.727 117.752 571.452 114.962C571.176 112.172 570.866 109.324 570.522 106.42L567.249 81.9601L536.035 138.839C535.093 140.188 534.14 141.149 533.175 141.72C532.234 142.315 531.338 142.612 530.488 142.612C529.248 142.612 528.283 142.246 527.594 141.515C526.882 140.783 526.388 139.891 526.113 138.839C525.056 135.317 524.149 132.344 523.391 129.919C522.633 127.495 521.932 125.277 521.289 123.264C520.623 121.251 520.014 119.296 519.463 117.398C518.912 115.5 518.28 113.304 517.568 110.811C516.879 108.341 516.098 105.414 515.226 102.029C514.353 98.644 513.296 94.493 512.056 89.5759L509.472 101.651L497.345 152.835C497.184 153.499 496.484 153.83 495.243 153.83C494.072 153.83 492.464 153.602 490.42 153.144C488.353 152.71 486.217 152.172 484.012 151.532C481.807 150.891 479.648 150.217 477.535 149.508C475.422 148.822 473.757 148.193 472.539 147.621C472.264 147.507 471.908 147.244 471.471 146.832C471.058 146.42 470.851 145.768 470.851 144.877C470.851 144.648 470.931 144.168 471.092 143.436C471.276 142.727 471.494 141.881 471.747 140.897C471.999 139.914 472.275 138.919 472.574 137.913C472.872 136.906 473.171 136.014 473.469 135.237C474.181 133.338 474.836 131.109 475.433 128.547C476.03 125.963 476.582 123.367 477.087 120.76C477.592 118.13 478.052 115.614 478.465 113.212C478.878 110.811 479.28 108.798 479.671 107.175L490.041 59.1125L493.142 45.5275C493.532 43.8122 493.911 42.1312 494.279 40.4846C494.646 38.8379 494.968 37.3399 495.243 35.9905C495.519 34.6412 495.737 33.5548 495.898 32.7315C496.082 31.8853 496.174 31.405 496.174 31.2907L517.189 24.8412C517.97 24.8412 518.659 24.9098 519.257 25.047C519.854 25.1843 520.233 25.6531 520.393 26.4536L537.137 80.0389L560.083 31.8739ZM623.854 146.866L622.407 116.986C622.407 116.917 622.395 116.86 622.372 116.815C622.349 116.746 622.338 116.689 622.338 116.643C622.338 115.705 622.843 115.236 623.854 115.236C624.359 115.236 624.91 115.477 625.507 115.957C628.539 118.816 631.904 121.08 635.602 122.749C639.323 124.419 643.365 125.254 647.729 125.254C648.9 125.254 650.244 125.139 651.76 124.911C653.276 124.659 654.711 124.236 656.067 123.641C657.399 123.047 658.536 122.281 659.477 121.343C660.396 120.382 660.855 119.182 660.855 117.741C660.855 116.117 660.465 114.665 659.684 113.384C658.88 112.103 657.835 111.017 656.549 110.125C656.044 109.782 655.286 109.222 654.275 108.444C653.264 107.666 652.116 106.774 650.83 105.768C649.544 104.762 648.2 103.687 646.799 102.543C645.398 101.4 644.066 100.302 642.802 99.2501C641.539 98.2209 640.402 97.2947 639.392 96.4713C638.381 95.6251 637.623 94.9733 637.118 94.5159C633.81 92.0688 631.192 89.5873 629.263 87.0716C627.333 84.5558 625.863 81.9372 624.853 79.2156C623.842 76.4712 623.199 73.6352 622.923 70.7078C622.648 67.7804 622.51 64.67 622.51 61.3767C622.51 56.4595 623.681 51.794 626.024 47.38C628.39 42.966 631.709 39.1238 635.981 35.8533C640.276 32.5828 645.421 29.9871 651.416 28.0659C657.433 26.1448 664.105 25.1843 671.432 25.1843C672.328 25.1843 673.683 25.2872 675.498 25.493C677.289 25.676 679.264 25.9962 681.423 26.4536C683.582 26.8881 685.776 27.4942 688.004 28.2718C690.255 29.0722 692.31 30.0785 694.171 31.2907C694.768 31.7481 695.25 32.1941 695.618 32.6286C695.985 33.086 696.226 33.7835 696.341 34.7212C696.617 39.2496 696.847 43.7093 697.03 48.1004C697.191 52.4687 697.409 57.1114 697.685 62.0285C697.685 62.989 697.49 63.618 697.099 63.9153C696.709 64.2355 696.204 64.3956 695.583 64.3956C694.963 64.3956 694.492 64.2241 694.171 63.881C692.54 62.2572 690.852 60.6677 689.106 59.1125C687.361 57.5345 685.535 56.1508 683.628 54.9615C681.722 53.7494 679.689 52.7888 677.53 52.0799C675.371 51.348 673.04 50.9821 670.537 50.9821C669.021 50.9821 667.505 51.1079 665.989 51.3595C664.473 51.611 663.095 52.0684 661.855 52.7317C660.614 53.4178 659.615 54.344 658.857 55.5104C658.099 56.6768 657.72 58.152 657.72 59.9359C657.72 61.8341 657.961 63.4808 658.444 64.8759C658.926 66.271 660.12 67.586 662.027 68.821L682.216 82.4746C685.914 85.1047 688.911 87.712 691.208 90.2963C693.505 92.9035 695.296 95.4879 696.582 98.0494C697.892 100.611 698.776 103.138 699.235 105.631C699.718 108.124 699.959 110.571 699.959 112.972C699.959 116.883 699.316 120.565 698.029 124.019C696.743 127.472 694.975 130.663 692.724 133.59C690.473 136.54 687.855 139.17 684.869 141.48C681.86 143.79 678.644 145.768 675.222 147.415C671.8 149.062 668.251 150.32 664.576 151.189C660.924 152.058 657.33 152.492 653.793 152.492C651.037 152.492 648.326 152.447 645.662 152.355C642.998 152.287 640.402 152.069 637.876 151.703C635.349 151.337 632.915 150.777 630.572 150.022C628.206 149.268 625.967 148.216 623.854 146.866Z" fill="white"/>
</g>
</g>
</g>
</g>
<g clip-path="url(#clip5_1_180)">
<g clip-path="url(#clip6_1_180)">
<path d="M169.328 96.9922V81.7229C179.047 80.6476 186.606 72.4753 186.606 62.5825C186.606 51.8295 177.967 43.2271 167.168 43.2271C160.689 43.2271 155.073 46.453 151.402 51.1843L109.502 27.0976C110.582 24.7319 111.014 22.1512 111.014 19.3554C111.014 8.60241 102.374 0 91.5754 0C80.7764 0 72.1372 8.60241 72.1372 19.3554C72.1372 20.2157 72.1372 20.8608 72.3532 21.7211L37.5805 30.1084L-1.52588e-05 20.6458L10.583 62.3675L38.6604 34.4096L73.2171 26.2374C76.0249 33.7645 83.1522 38.9259 91.5754 38.9259C98.0548 38.9259 103.67 35.7 107.342 30.9687L149.458 54.8404C148.378 56.991 147.73 59.5717 147.73 62.3675C147.73 72.2602 155.289 80.4325 165.009 81.5078V96.7771C155.289 97.8524 147.73 106.025 147.73 115.917C147.73 119.143 148.594 122.154 149.89 124.735L117.277 146.671C113.605 142.37 108.422 139.789 102.374 139.789C95.463 139.789 89.6316 143.23 86.1759 148.607L55.9387 133.552C56.8027 131.402 57.2346 129.251 57.2346 126.886C57.2346 116.133 48.5954 107.53 37.7964 107.53C26.9975 107.53 18.3583 116.133 18.3583 126.886C18.3583 137.639 26.9975 146.241 37.7964 146.241C44.7078 146.241 50.5392 142.8 53.9949 137.423L84.2321 152.478C83.3682 154.628 82.9362 156.779 82.9362 159.145C82.9362 169.898 91.5754 178.5 102.374 178.5C113.173 178.5 121.813 169.898 121.813 159.145C121.813 155.919 120.949 152.908 119.653 150.327L152.266 128.606C155.937 132.907 161.121 135.488 167.168 135.488C177.967 135.488 186.606 126.886 186.606 116.133C186.606 106.24 179.047 98.0675 169.328 96.9922ZM12.7428 53.7651L5.83144 26.4524L33.2609 33.3343L12.7428 53.7651ZM105.614 24.947C105.182 26.2373 104.318 27.5277 103.454 28.603C100.647 32.044 96.327 34.4096 91.5754 34.4096C85.312 34.4096 79.6965 30.5386 77.5367 24.947C77.1048 23.6566 76.6728 22.1512 76.4568 20.8608C76.4568 20.4307 76.4568 20.0006 76.4568 19.5705C76.4568 11.1831 83.1522 4.51627 91.5754 4.51627C99.9986 4.51627 106.694 11.1831 106.694 19.5705C106.694 21.291 106.262 23.2265 105.614 24.947ZM51.8351 131.617C51.4032 132.907 50.7552 134.198 49.8913 135.488C47.0836 139.359 42.548 141.94 37.5805 141.94C29.1572 141.94 22.4619 135.273 22.4619 126.886C22.4619 118.498 29.1572 111.831 37.5805 111.831C46.0037 111.831 52.699 118.498 52.699 126.886C52.699 128.606 52.4831 130.111 51.8351 131.617ZM102.374 174.199C93.9512 174.199 87.2558 167.532 87.2558 159.145C87.2558 157.424 87.4718 155.919 88.1197 154.413C88.5517 153.123 89.1996 151.833 90.0635 150.542C92.8713 146.671 97.4069 144.09 102.374 144.09C106.91 144.09 110.798 146.026 113.605 149.037C114.469 150.112 115.333 151.402 115.981 152.693C116.845 154.628 117.493 156.779 117.493 159.145C117.493 167.532 110.798 174.199 102.374 174.199ZM152.05 62.3675C152.05 60.4319 152.482 58.4964 153.13 56.7759C153.562 55.4855 154.426 54.1952 155.289 53.1199C158.097 49.6789 162.417 47.3133 167.168 47.3133C175.592 47.3133 182.287 53.9801 182.287 62.3675C182.287 69.8946 176.671 76.1313 169.328 77.2066C168.68 77.2066 167.816 77.4217 167.168 77.4217C166.52 77.4217 165.656 77.4217 165.009 77.2066C157.665 76.1313 152.05 69.8946 152.05 62.3675ZM167.168 131.187C162.633 131.187 158.745 129.251 155.937 126.24C155.073 125.165 154.21 123.875 153.562 122.584C152.698 120.649 152.05 118.498 152.05 116.133C152.05 108.605 157.665 102.369 165.009 101.293C165.656 101.293 166.52 101.078 167.168 101.078C167.816 101.078 168.68 101.078 169.328 101.293C176.671 102.369 182.287 108.605 182.287 116.133C182.287 124.52 175.592 131.187 167.168 131.187Z" fill="#DEDEDE"/>
<path d="M37.5805 116.133C31.533 116.133 26.7815 120.864 26.7815 126.886C26.7815 132.907 31.533 137.639 37.5805 137.639C43.6279 137.639 48.3795 132.907 48.3795 126.886C48.3795 120.864 43.6279 116.133 37.5805 116.133ZM37.5805 133.337C33.9088 133.337 31.1011 130.542 31.1011 126.886C31.1011 123.23 33.9088 120.434 37.5805 120.434C41.2521 120.434 44.0599 123.23 44.0599 126.886C44.0599 130.542 41.2521 133.337 37.5805 133.337Z" fill="#DEDEDE"/>
</g>
</g>
</g>
<defs>
<clipPath id="clip0_1_180">
<rect width="700" height="178.5" fill="white"/>
</clipPath>
<clipPath id="clip1_1_180">
<rect width="440.452" height="129.161" fill="white" transform="translate(259.548 24.6697)"/>
</clipPath>
<clipPath id="clip2_1_180">
<rect width="440.452" height="129.161" fill="white" transform="translate(259.548 24.6697)"/>
</clipPath>
<clipPath id="clip3_1_180">
<rect width="440.452" height="129.161" fill="white" transform="translate(259.548 24.6697)"/>
</clipPath>
<clipPath id="clip4_1_180">
<rect width="440.452" height="129.161" fill="white" transform="translate(259.548 24.6697)"/>
</clipPath>
<clipPath id="clip5_1_180">
<rect width="186.606" height="178.5" fill="white"/>
</clipPath>
<clipPath id="clip6_1_180">
<rect width="186.606" height="178.5" fill="white"/>
</clipPath>
</defs>
</svg>
