<svg width="1000" height="1000" viewBox="0 0 1000 1000" fill="none" xmlns="http://www.w3.org/2000/svg">
<g clip-path="url(#clip0_1_30)">
<g style="mix-blend-mode:multiply">
<path d="M1000 0H0V1000H1000V0Z" fill="black"/>
</g>
<g clip-path="url(#clip1_1_30)">
<path d="M842.222 533.548V466.398C885.972 461.669 920 425.729 920 382.223C920 334.934 881.111 297.102 832.5 297.102C803.333 297.102 778.056 311.289 761.528 332.096L572.917 226.169C577.778 215.765 579.722 204.416 579.722 192.12C579.722 144.831 540.833 107 492.222 107C443.611 107 404.722 144.831 404.722 192.12C404.722 195.904 404.722 198.741 405.694 202.524L249.167 239.41L80 197.795L127.639 381.277L254.028 258.325L409.583 222.386C422.222 255.488 454.306 278.187 492.222 278.187C521.389 278.187 546.667 264 563.194 243.193L752.778 348.175C747.917 357.633 745 368.982 745 381.277C745 424.783 779.028 460.723 822.778 465.452V532.602C779.028 537.331 745 573.271 745 616.777C745 630.964 748.889 644.205 754.722 655.554L607.917 752.024C591.389 733.108 568.056 721.759 540.833 721.759C509.722 721.759 483.472 736.892 467.917 760.536L331.806 694.331C335.694 684.873 337.639 675.416 337.639 665.012C337.639 617.723 298.75 579.892 250.139 579.892C201.528 579.892 162.639 617.723 162.639 665.012C162.639 712.301 201.528 750.133 250.139 750.133C281.25 750.133 307.5 735 323.056 711.355L459.167 777.56C455.278 787.018 453.333 796.476 453.333 806.88C453.333 854.169 492.222 892 540.833 892C589.444 892 628.333 854.169 628.333 806.88C628.333 792.693 624.444 779.452 618.611 768.102L765.417 672.578C781.944 691.494 805.278 702.843 832.5 702.843C881.111 702.843 920 665.012 920 617.723C920 574.217 885.972 538.277 842.222 533.548ZM137.361 343.446L106.25 223.331L229.722 253.596L137.361 343.446ZM555.417 216.711C553.472 222.386 549.583 228.06 545.694 232.789C533.056 247.922 513.611 258.325 492.222 258.325C464.028 258.325 438.75 241.301 429.028 216.711C427.083 211.036 425.139 204.416 424.167 198.741C424.167 196.849 424.167 194.958 424.167 193.066C424.167 156.181 454.306 126.861 492.222 126.861C530.139 126.861 560.278 156.181 560.278 193.066C560.278 200.633 558.333 209.145 555.417 216.711ZM313.333 685.819C311.389 691.494 308.472 697.169 304.583 702.843C291.944 719.867 271.528 731.217 249.167 731.217C211.25 731.217 181.111 701.898 181.111 665.012C181.111 628.127 211.25 598.807 249.167 598.807C287.083 598.807 317.222 628.127 317.222 665.012C317.222 672.578 316.25 679.199 313.333 685.819ZM540.833 873.084C502.917 873.084 472.778 843.765 472.778 806.88C472.778 799.313 473.75 792.693 476.667 786.072C478.611 780.398 481.528 774.723 485.417 769.048C498.056 752.024 518.472 740.675 540.833 740.675C561.25 740.675 578.75 749.187 591.389 762.428C595.278 767.157 599.167 772.831 602.083 778.506C605.972 787.018 608.889 796.476 608.889 806.88C608.889 843.765 578.75 873.084 540.833 873.084ZM764.444 381.277C764.444 372.765 766.389 364.253 769.306 356.687C771.25 351.012 775.139 345.337 779.028 340.608C791.667 325.476 811.111 315.072 832.5 315.072C870.417 315.072 900.556 344.392 900.556 381.277C900.556 414.38 875.278 441.807 842.222 446.536C839.306 446.536 835.417 447.482 832.5 447.482C829.583 447.482 825.694 447.482 822.778 446.536C789.722 441.807 764.444 414.38 764.444 381.277ZM832.5 683.928C812.083 683.928 794.583 675.416 781.944 662.175C778.056 657.446 774.167 651.771 771.25 646.096C767.361 637.584 764.444 628.127 764.444 617.723C764.444 584.62 789.722 557.193 822.778 552.464C825.694 552.464 829.583 551.518 832.5 551.518C835.417 551.518 839.306 551.518 842.222 552.464C875.278 557.193 900.556 584.62 900.556 617.723C900.556 654.608 870.417 683.928 832.5 683.928Z" fill="#DEDEDE"/>
<path d="M249.167 617.723C221.944 617.723 200.556 638.53 200.556 665.012C200.556 691.494 221.944 712.301 249.167 712.301C276.389 712.301 297.778 691.494 297.778 665.012C297.778 638.53 276.389 617.723 249.167 617.723ZM249.167 693.386C232.639 693.386 220 681.09 220 665.012C220 648.934 232.639 636.639 249.167 636.639C265.694 636.639 278.333 648.934 278.333 665.012C278.333 681.09 265.694 693.386 249.167 693.386Z" fill="#DEDEDE"/>
</g>
</g>
<defs>
<clipPath id="clip0_1_30">
<rect width="1000" height="1000" fill="white"/>
</clipPath>
<clipPath id="clip1_1_30">
<rect width="840" height="785" fill="white" transform="translate(80 107)"/>
</clipPath>
</defs>
</svg>
